STARTFONT 2.1
FONT -misc-Darn-Bold-R-Normal--38-380-72-72-M-180-ISO10646-1
SIZE 38 72 72
FONTBOUNDINGBOX 68 38 -50 -8
COMMENT "Generated by fontforge, http://fontforge.sourceforge.net"
STARTPROPERTIES 34
FAMILY_NAME "Darn"
WEIGHT_NAME "Bold"
SLANT "R"
SETWIDTH_NAME "Normal"
FONT_NAME "DarnBold"
FACE_NAME "Darn Bold"
FONT_VERSION "0.100"
COPYRIGHT "Copyright (c) 2020, Gabriel Holodak"
PIXEL_SIZE 38
POINT_SIZE 380
RESOLUTION_X 72
RESOLUTION_Y 72
SPACING "M"
AVERAGE_WIDTH 180
FONT_ASCENT 30
FONT_DESCENT 8
UNDERLINE_POSITION -5
UNDERLINE_THICKNESS 2
X_HEIGHT 17
CAP_HEIGHT 23
RAW_ASCENT 789
RAW_DESCENT 210
NORM_SPACE 18
RELATIVE_WEIGHT 50
RELATIVE_SETWIDTH 50
SUPERSCRIPT_X 0
SUPERSCRIPT_Y 0
SUPERSCRIPT_SIZE 0
SUBSCRIPT_X 0
SUBSCRIPT_Y 0
SUBSCRIPT_SIZE 0
FIGURE_WIDTH 18
AVG_LOWERCASE_WIDTH 180
AVG_UPPERCASE_WIDTH 180
ENDPROPERTIES
CHARS 210
STARTCHAR space
ENCODING 32
SWIDTH 473 0
DWIDTH 18 0
BBX 1 1 0 0
BITMAP
00
ENDCHAR
STARTCHAR exclam
ENCODING 33
SWIDTH 473 0
DWIDTH 18 0
BBX 5 24 7 0
BITMAP
70
70
70
70
70
70
70
70
70
70
70
70
70
70
70
70
70
00
00
00
70
F8
F8
70
ENDCHAR
STARTCHAR quotedbl
ENCODING 34
SWIDTH 473 0
DWIDTH 18 0
BBX 10 8 5 18
BITMAP
F3C0
F3C0
F3C0
F3C0
F3C0
F3C0
F3C0
6180
ENDCHAR
STARTCHAR numbersign
ENCODING 35
SWIDTH 473 0
DWIDTH 18 0
BBX 13 24 4 0
BITMAP
38E0
38E0
38E0
38E0
38E0
FFF8
FFF8
FFF8
38E0
38E0
38E0
38E0
38E0
38E0
38E0
38E0
FFF8
FFF8
FFF8
38E0
38E0
38E0
38E0
38E0
ENDCHAR
STARTCHAR dollar
ENCODING 36
SWIDTH 473 0
DWIDTH 18 0
BBX 15 30 2 -3
BITMAP
0380
0380
0380
1FF0
3FFC
7BBE
F38E
E380
E380
E380
E380
F380
7B80
3F80
1FC0
07F0
03F8
03BC
039E
038E
038E
038E
038E
E39E
FBBC
7FF8
1FF0
0380
0380
0380
ENDCHAR
STARTCHAR percent
ENCODING 37
SWIDTH 473 0
DWIDTH 18 0
BBX 15 24 2 0
BITMAP
1C00
7F00
770E
E39E
E39C
E3BC
E3F8
7770
7FF0
1DE0
01C0
03C0
0780
0700
0F70
1FFC
1DDC
3F8E
7B8E
738E
F38E
E1DC
01FC
0070
ENDCHAR
STARTCHAR ampersand
ENCODING 38
SWIDTH 473 0
DWIDTH 18 0
BBX 16 24 2 0
BITMAP
0780
1FC0
1FC0
3CE0
38E0
38E0
39E0
3BC0
1F80
1F00
0E00
1F00
3F00
7B80
F38E
E1CE
E1FE
E0FC
E078
E070
F0F8
7FFF
3FDF
1F8F
ENDCHAR
STARTCHAR quotesingle
ENCODING 39
SWIDTH 473 0
DWIDTH 18 0
BBX 4 8 8 18
BITMAP
F0
F0
F0
F0
F0
F0
F0
60
ENDCHAR
STARTCHAR parenleft
ENCODING 40
SWIDTH 473 0
DWIDTH 18 0
BBX 9 28 6 -2
BITMAP
0180
0380
0700
0E00
1C00
3800
3800
7000
7000
F000
E000
E000
E000
E000
E000
E000
E000
E000
F000
7000
7000
3800
3800
1C00
0E00
0700
0380
0180
ENDCHAR
STARTCHAR parenright
ENCODING 41
SWIDTH 473 0
DWIDTH 18 0
BBX 9 28 4 -2
BITMAP
C000
E000
7000
3800
1C00
0E00
0E00
0700
0700
0780
0380
0380
0380
0380
0380
0380
0380
0380
0780
0700
0700
0E00
0E00
1C00
3800
7000
E000
C000
ENDCHAR
STARTCHAR asterisk
ENCODING 42
SWIDTH 473 0
DWIDTH 18 0
BBX 15 14 2 6
BITMAP
0380
0380
E38E
739C
3BB8
1FF0
0FE0
0FE0
1FF0
3BF8
739C
E38E
0380
0380
ENDCHAR
STARTCHAR plus
ENCODING 43
SWIDTH 473 0
DWIDTH 18 0
BBX 15 15 2 3
BITMAP
0380
0380
0380
0380
0380
0380
FFFE
FFFE
FFFE
0380
0380
0380
0380
0380
0380
ENDCHAR
STARTCHAR comma
ENCODING 44
SWIDTH 473 0
DWIDTH 18 0
BBX 5 10 8 -4
BITMAP
F8
F8
F8
F8
38
38
70
70
E0
C0
ENDCHAR
STARTCHAR hyphen
ENCODING 45
SWIDTH 473 0
DWIDTH 18 0
BBX 13 3 4 9
BITMAP
FFF8
FFF8
FFF8
ENDCHAR
STARTCHAR period
ENCODING 46
SWIDTH 473 0
DWIDTH 18 0
BBX 6 6 7 -1
BITMAP
30
78
FC
FC
78
30
ENDCHAR
STARTCHAR slash
ENCODING 47
SWIDTH 473 0
DWIDTH 18 0
BBX 14 24 3 0
BITMAP
001C
001C
0038
0038
0070
0070
00E0
00E0
01C0
01C0
0380
0380
0700
0700
0E00
0E00
1C00
1C00
3800
3800
7000
7000
E000
E000
ENDCHAR
STARTCHAR zero
ENCODING 48
SWIDTH 473 0
DWIDTH 18 0
BBX 15 24 2 0
BITMAP
07C0
0FE0
1FF0
3C78
3838
787C
707C
F0EE
E0EE
E1CE
E1CE
E38E
E38E
E70E
E70E
EE0E
EE1E
7C1C
7C3C
3838
3C78
1FF0
0FE0
07C0
ENDCHAR
STARTCHAR one
ENCODING 49
SWIDTH 473 0
DWIDTH 18 0
BBX 15 24 2 0
BITMAP
0380
0780
0F80
1F80
3F80
7B80
F380
E380
0380
0380
0380
0380
0380
0380
0380
0380
0380
0380
0380
0380
0380
FFFE
FFFE
FFFE
ENDCHAR
STARTCHAR two
ENCODING 50
SWIDTH 473 0
DWIDTH 18 0
BBX 15 24 2 0
BITMAP
07C0
1FF0
3FF8
7C7C
F01C
E01E
000E
000E
001E
001C
003C
0078
00F0
01E0
03C0
0780
0F00
1E00
3C00
7800
F000
FFFC
FFFC
FFFC
ENDCHAR
STARTCHAR three
ENCODING 51
SWIDTH 473 0
DWIDTH 18 0
BBX 15 24 2 0
BITMAP
1FC0
7FF0
FFF8
F078
003C
001C
001C
003C
0038
0078
0FF0
0FF0
0FF8
003C
001C
001E
000E
000E
001E
001C
F07C
FFF8
7FF0
1FC0
ENDCHAR
STARTCHAR four
ENCODING 52
SWIDTH 473 0
DWIDTH 18 0
BBX 15 24 2 0
BITMAP
0038
0078
00F8
01F8
03F8
07B8
0F38
1E38
3C38
7838
F038
E038
E038
FFFE
FFFE
FFFE
0038
0038
0038
0038
0038
0038
0038
0038
ENDCHAR
STARTCHAR five
ENCODING 53
SWIDTH 473 0
DWIDTH 18 0
BBX 15 24 2 0
BITMAP
FFFE
FFFE
FFFE
E000
E000
E000
E000
E000
E000
FF80
FFE0
FFF0
00F8
003C
001C
001E
000E
000E
001E
001C
F07C
FFF8
7FF0
1FC0
ENDCHAR
STARTCHAR six
ENCODING 54
SWIDTH 473 0
DWIDTH 18 0
BBX 15 24 2 0
BITMAP
07F0
1FFC
3FFE
7C1E
7000
F000
E000
E000
E000
E000
E7C0
FFF0
FFF8
FC7C
F01C
F01E
E00E
E00E
F01E
701C
7C7C
3FF8
1FF0
07C0
ENDCHAR
STARTCHAR seven
ENCODING 55
SWIDTH 473 0
DWIDTH 18 0
BBX 15 24 2 0
BITMAP
FFFE
FFFE
FFFE
000E
000E
001E
003C
0078
00F0
00E0
00E0
01E0
01C0
01C0
03C0
0380
0380
0380
0380
0380
0380
0380
0380
0380
ENDCHAR
STARTCHAR eight
ENCODING 56
SWIDTH 473 0
DWIDTH 18 0
BBX 15 24 2 0
BITMAP
07C0
1FF0
3FF8
3C78
783C
701C
701C
783C
3838
3EF8
0FE0
1FF0
3FF8
7C7C
701C
F01E
E00E
E00E
F01E
701C
7C7C
3FF8
1FF0
07C0
ENDCHAR
STARTCHAR nine
ENCODING 57
SWIDTH 473 0
DWIDTH 18 0
BBX 15 24 2 0
BITMAP
07C0
1FF0
3FF8
7C7C
701C
F01E
E00E
E00E
F01E
701E
7C7E
3FFE
1FEE
078E
000E
000E
000E
000E
001E
001C
F07C
FFF8
7FF0
1FC0
ENDCHAR
STARTCHAR colon
ENCODING 58
SWIDTH 473 0
DWIDTH 18 0
BBX 6 16 7 5
BITMAP
30
78
FC
FC
78
30
00
00
00
00
30
78
FC
FC
78
30
ENDCHAR
STARTCHAR semicolon
ENCODING 59
SWIDTH 473 0
DWIDTH 18 0
BBX 6 25 7 -4
BITMAP
30
78
FC
FC
78
30
00
00
00
00
00
00
00
00
00
7C
7C
7C
7C
1C
1C
38
38
70
60
ENDCHAR
STARTCHAR less
ENCODING 60
SWIDTH 473 0
DWIDTH 18 0
BBX 13 22 4 2
BITMAP
0038
0078
00F0
01E0
03C0
0780
0F00
1E00
3C00
7800
F000
F000
7800
3C00
1E00
0F00
0780
03C0
01E0
00F0
0078
0038
ENDCHAR
STARTCHAR equal
ENCODING 61
SWIDTH 473 0
DWIDTH 18 0
BBX 13 13 4 5
BITMAP
FFF8
FFF8
FFF8
0000
0000
0000
0000
0000
0000
0000
FFF8
FFF8
FFF8
ENDCHAR
STARTCHAR greater
ENCODING 62
SWIDTH 473 0
DWIDTH 18 0
BBX 13 22 4 2
BITMAP
E000
F000
7800
3C00
1E00
0F00
0780
03C0
01E0
00F0
0078
0078
00F0
01E0
03C0
0780
0F00
1E00
3C00
7800
F000
E000
ENDCHAR
STARTCHAR question
ENCODING 63
SWIDTH 473 0
DWIDTH 18 0
BBX 15 24 2 0
BITMAP
07C0
1FF0
3FF8
7C7C
F01C
E01E
000E
000E
001E
001C
003C
0078
00F0
01E0
03C0
0380
0380
0380
0000
0000
0380
07C0
07C0
0380
ENDCHAR
STARTCHAR at
ENCODING 64
SWIDTH 473 0
DWIDTH 18 0
BBX 15 24 2 0
BITMAP
0FE0
1FF0
3FF8
783C
739C
F7DE
E7CE
EEEE
EEEE
EEEE
EEEE
EEEE
EEEE
EEEE
EEEE
EEEE
EEFE
E7FC
F7FC
7338
7800
3FF8
1FF8
07F8
ENDCHAR
STARTCHAR A
ENCODING 65
SWIDTH 473 0
DWIDTH 18 0
BBX 15 24 2 0
BITMAP
0380
0380
07C0
07C0
0EE0
0EE0
1C70
1C70
3838
3838
701C
701C
E00E
FFFE
FFFE
FFFE
E00E
E00E
E00E
E00E
E00E
E00E
E00E
E00E
ENDCHAR
STARTCHAR B
ENCODING 66
SWIDTH 473 0
DWIDTH 18 0
BBX 15 24 2 0
BITMAP
FFC0
FFF0
FFF8
E078
E03C
E01C
E01C
E03C
E038
E0F8
FFF0
FFF0
FFF8
E07C
E01C
E01E
E00E
E00E
E01E
E01C
E07C
FFF8
FFF0
FFC0
ENDCHAR
STARTCHAR C
ENCODING 67
SWIDTH 473 0
DWIDTH 18 0
BBX 15 24 2 0
BITMAP
07C0
1FF0
3FF8
7C7C
701C
F01E
E00E
E000
E000
E000
E000
E000
E000
E000
E000
E000
E000
E00E
F01E
701C
7C7C
3FF8
1FF0
07C0
ENDCHAR
STARTCHAR D
ENCODING 68
SWIDTH 473 0
DWIDTH 18 0
BBX 15 24 2 0
BITMAP
FF00
FFC0
FFE0
E1F0
E078
E03C
E01C
E01E
E00E
E00E
E00E
E00E
E00E
E00E
E00E
E00E
E01E
E01C
E03C
E078
E1F0
FFE0
FFC0
FF00
ENDCHAR
STARTCHAR E
ENCODING 69
SWIDTH 473 0
DWIDTH 18 0
BBX 15 24 2 0
BITMAP
FFFE
FFFE
FFFE
E000
E000
E000
E000
E000
E000
E000
FFF8
FFF8
FFF8
E000
E000
E000
E000
E000
E000
E000
E000
FFFE
FFFE
FFFE
ENDCHAR
STARTCHAR F
ENCODING 70
SWIDTH 473 0
DWIDTH 18 0
BBX 15 24 2 0
BITMAP
FFFE
FFFE
FFFE
E000
E000
E000
E000
E000
E000
E000
FFF8
FFF8
FFF8
E000
E000
E000
E000
E000
E000
E000
E000
E000
E000
E000
ENDCHAR
STARTCHAR G
ENCODING 71
SWIDTH 473 0
DWIDTH 18 0
BBX 15 24 2 0
BITMAP
07C0
1FF0
3FF8
7C7C
701C
F01E
E00E
E000
E000
E000
E000
E000
E0FE
E0FE
E0FE
E00E
E00E
E00E
F01E
701E
7C7E
3FFE
1FEE
07CE
ENDCHAR
STARTCHAR H
ENCODING 72
SWIDTH 473 0
DWIDTH 18 0
BBX 15 24 2 0
BITMAP
E00E
E00E
E00E
E00E
E00E
E00E
E00E
E00E
E00E
E00E
FFFE
FFFE
FFFE
E00E
E00E
E00E
E00E
E00E
E00E
E00E
E00E
E00E
E00E
E00E
ENDCHAR
STARTCHAR I
ENCODING 73
SWIDTH 473 0
DWIDTH 18 0
BBX 15 24 2 0
BITMAP
FFFE
FFFE
FFFE
0380
0380
0380
0380
0380
0380
0380
0380
0380
0380
0380
0380
0380
0380
0380
0380
0380
0380
FFFE
FFFE
FFFE
ENDCHAR
STARTCHAR J
ENCODING 74
SWIDTH 473 0
DWIDTH 18 0
BBX 16 24 2 0
BITMAP
03FF
03FF
03FF
000E
000E
000E
000E
000E
000E
000E
000E
000E
000E
000E
000E
000E
000E
000E
E01E
F01C
7C7C
3FF8
1FF0
07C0
ENDCHAR
STARTCHAR K
ENCODING 75
SWIDTH 473 0
DWIDTH 18 0
BBX 15 24 2 0
BITMAP
E00E
E01E
E03C
E078
E0F0
E1E0
E3C0
E780
EF00
FE00
FC00
F800
F800
FC00
FE00
EF00
E780
E3C0
E1E0
E0F0
E078
E03C
E01E
E00E
ENDCHAR
STARTCHAR L
ENCODING 76
SWIDTH 473 0
DWIDTH 18 0
BBX 15 24 2 0
BITMAP
E000
E000
E000
E000
E000
E000
E000
E000
E000
E000
E000
E000
E000
E000
E000
E000
E000
E000
E000
E000
E000
FFFE
FFFE
FFFE
ENDCHAR
STARTCHAR M
ENCODING 77
SWIDTH 473 0
DWIDTH 18 0
BBX 15 24 2 0
BITMAP
E00E
E00E
F01E
F01E
F83E
F83E
FC7E
FC7E
FEFE
EEEE
EFEE
E7CE
E7CE
E38E
E38E
E00E
E00E
E00E
E00E
E00E
E00E
E00E
E00E
E00E
ENDCHAR
STARTCHAR N
ENCODING 78
SWIDTH 473 0
DWIDTH 18 0
BBX 15 24 2 0
BITMAP
E00E
F00E
F00E
F80E
F80E
FC0E
FC0E
EE0E
EE0E
E70E
E70E
E38E
E38E
E1CE
E1CE
E0EE
E0EE
E07E
E07E
E03E
E03E
E01E
E01E
E00E
ENDCHAR
STARTCHAR O
ENCODING 79
SWIDTH 473 0
DWIDTH 18 0
BBX 15 24 2 0
BITMAP
07C0
1FF0
3FF8
7C7C
701C
F01E
E00E
E00E
E00E
E00E
E00E
E00E
E00E
E00E
E00E
E00E
E00E
E00E
F01E
701C
7C7C
3FF8
1FF0
07C0
ENDCHAR
STARTCHAR P
ENCODING 80
SWIDTH 473 0
DWIDTH 18 0
BBX 15 24 2 0
BITMAP
FFC0
FFF0
FFF8
E07C
E01C
E01E
E00E
E00E
E01E
E01C
E07C
FFF8
FFF0
FFC0
E000
E000
E000
E000
E000
E000
E000
E000
E000
E000
ENDCHAR
STARTCHAR Q
ENCODING 81
SWIDTH 473 0
DWIDTH 18 0
BBX 15 27 2 -3
BITMAP
07C0
1FF0
3EF8
783C
701C
F01E
E00E
E00E
E00E
E00E
E00E
E00E
E00E
E00E
E00E
E00E
E00E
E00E
F39E
77DC
7EFC
3EF8
1FF0
07E0
007E
003E
001E
ENDCHAR
STARTCHAR R
ENCODING 82
SWIDTH 473 0
DWIDTH 18 0
BBX 15 24 2 0
BITMAP
FFC0
FFF0
FFF8
E07C
E01C
E01E
E00E
E00E
E01E
E01C
E07C
FFF8
FFF0
FFE0
E0E0
E0F0
E070
E078
E038
E03C
E01C
E01E
E00E
E00E
ENDCHAR
STARTCHAR S
ENCODING 83
SWIDTH 473 0
DWIDTH 18 0
BBX 15 24 2 0
BITMAP
07C0
1FF0
3FF8
7C7C
701E
F01E
E000
E000
F000
7000
7F00
3FE0
0FF8
01FC
001C
001E
000E
000E
F01E
F01C
7C7C
3FF8
1FF0
07C0
ENDCHAR
STARTCHAR T
ENCODING 84
SWIDTH 473 0
DWIDTH 18 0
BBX 15 24 2 0
BITMAP
FFFE
FFFE
FFFE
0380
0380
0380
0380
0380
0380
0380
0380
0380
0380
0380
0380
0380
0380
0380
0380
0380
0380
0380
0380
0380
ENDCHAR
STARTCHAR U
ENCODING 85
SWIDTH 473 0
DWIDTH 18 0
BBX 15 24 2 0
BITMAP
E00E
E00E
E00E
E00E
E00E
E00E
E00E
E00E
E00E
E00E
E00E
E00E
E00E
E00E
E00E
E00E
E00E
E00E
F01E
701C
7C7C
3FF8
1FF0
07C0
ENDCHAR
STARTCHAR V
ENCODING 86
SWIDTH 473 0
DWIDTH 18 0
BBX 15 24 2 0
BITMAP
E00E
E00E
E00E
E00E
E00E
E00E
E00E
E00E
E00E
E00E
E00E
E00E
701C
701C
3838
3838
1C70
1C70
0EE0
0EE0
07C0
07C0
0380
0380
ENDCHAR
STARTCHAR W
ENCODING 87
SWIDTH 473 0
DWIDTH 18 0
BBX 15 24 2 0
BITMAP
E00E
E00E
E00E
E00E
E00E
E00E
E00E
E00E
E00E
E00E
E00E
E00E
E00E
E38E
E38E
E38E
E7CE
E7CE
EEEE
EEEE
7C7C
7C7C
3838
3838
ENDCHAR
STARTCHAR X
ENCODING 88
SWIDTH 473 0
DWIDTH 18 0
BBX 15 24 2 0
BITMAP
E00E
E00E
E00E
E00E
E00E
E00E
F01E
783C
3C78
1EF0
0FE0
07C0
07C0
0FE0
1EF0
3C78
783C
F01E
E00E
E00E
E00E
E00E
E00E
E00E
ENDCHAR
STARTCHAR Y
ENCODING 89
SWIDTH 473 0
DWIDTH 18 0
BBX 15 24 2 0
BITMAP
E00E
E00E
E00E
E00E
E00E
E00E
E00E
F01E
783C
3C78
1EF0
0FE0
07C0
0380
0380
0380
0380
0380
0380
0380
0380
0380
0380
0380
ENDCHAR
STARTCHAR Z
ENCODING 90
SWIDTH 473 0
DWIDTH 18 0
BBX 15 24 2 0
BITMAP
FFFE
FFFE
FFFE
001E
003C
0038
0078
00F0
00E0
01E0
03C0
0380
0780
0F00
0E00
1E00
3C00
3800
7800
F000
E000
FFFE
FFFE
FFFE
ENDCHAR
STARTCHAR bracketleft
ENCODING 91
SWIDTH 473 0
DWIDTH 18 0
BBX 9 28 6 -2
BITMAP
FF80
FF80
FF80
E000
E000
E000
E000
E000
E000
E000
E000
E000
E000
E000
E000
E000
E000
E000
E000
E000
E000
E000
E000
E000
E000
FF80
FF80
FF80
ENDCHAR
STARTCHAR backslash
ENCODING 92
SWIDTH 473 0
DWIDTH 18 0
BBX 14 24 3 0
BITMAP
E000
E000
7000
7000
3800
3800
1C00
1C00
0E00
0E00
0700
0700
0380
0380
01C0
01C0
00E0
00E0
0070
0070
0038
0038
001C
001C
ENDCHAR
STARTCHAR bracketright
ENCODING 93
SWIDTH 473 0
DWIDTH 18 0
BBX 9 28 4 -2
BITMAP
FF80
FF80
FF80
0380
0380
0380
0380
0380
0380
0380
0380
0380
0380
0380
0380
0380
0380
0380
0380
0380
0380
0380
0380
0380
0380
FF80
FF80
FF80
ENDCHAR
STARTCHAR asciicircum
ENCODING 94
SWIDTH 473 0
DWIDTH 18 0
BBX 15 7 2 19
BITMAP
0380
07C0
0FE0
1EF0
3C78
783C
F01E
ENDCHAR
STARTCHAR underscore
ENCODING 95
SWIDTH 473 0
DWIDTH 18 0
BBX 15 3 2 -3
BITMAP
FFFE
FFFE
FFFE
ENDCHAR
STARTCHAR grave
ENCODING 96
SWIDTH 473 0
DWIDTH 18 0
BBX 9 8 6 18
BITMAP
E000
F000
7800
3C00
1E00
0F00
0780
0380
ENDCHAR
STARTCHAR a
ENCODING 97
SWIDTH 473 0
DWIDTH 18 0
BBX 15 18 2 0
BITMAP
1FF0
7FFC
FFFC
F01E
000E
000E
000E
1FFE
7FFE
7FFE
F00E
E00E
E00E
E00E
F01E
7FFE
7FFE
1FEE
ENDCHAR
STARTCHAR b
ENCODING 98
SWIDTH 473 0
DWIDTH 18 0
BBX 15 26 2 0
BITMAP
E000
E000
E000
E000
E000
E000
E000
E000
EFC0
FFF0
FFF8
F07C
E01C
E01E
E00E
E00E
E00E
E00E
E00E
E00E
E01E
E01C
F07C
FFF8
FFF0
EFC0
ENDCHAR
STARTCHAR c
ENCODING 99
SWIDTH 473 0
DWIDTH 18 0
BBX 15 18 2 0
BITMAP
07C0
1FF0
3FF8
7C3C
701E
F00E
E000
E000
E000
E000
E000
E000
F00E
701E
7C3C
3FF8
1FF0
07C0
ENDCHAR
STARTCHAR d
ENCODING 100
SWIDTH 473 0
DWIDTH 18 0
BBX 15 26 2 0
BITMAP
000E
000E
000E
000E
000E
000E
000E
000E
07EE
1FFE
3FFE
7C1E
700E
F00E
E00E
E00E
E00E
E00E
E00E
E00E
F00E
700E
7C1E
3FFE
1FFE
07EE
ENDCHAR
STARTCHAR e
ENCODING 101
SWIDTH 473 0
DWIDTH 18 0
BBX 15 18 2 0
BITMAP
07C0
1FF0
3FF8
783C
701C
F01E
E00E
FFFE
FFFE
FFFE
E000
E000
F000
7000
7C1E
3FFE
1FFC
07F0
ENDCHAR
STARTCHAR f
ENCODING 102
SWIDTH 473 0
DWIDTH 18 0
BBX 15 26 2 0
BITMAP
00FE
03FE
07FE
0780
0F00
0E00
0E00
0E00
FFF8
FFF8
FFF8
0E00
0E00
0E00
0E00
0E00
0E00
0E00
0E00
0E00
0E00
0E00
0E00
0E00
0E00
0E00
ENDCHAR
STARTCHAR g
ENCODING 103
SWIDTH 473 0
DWIDTH 18 0
BBX 15 26 2 -8
BITMAP
07EE
1FFE
3FFE
7C1E
700E
F00E
E00E
E00E
E00E
E00E
E00E
E00E
F00E
700E
7C1E
3FFE
1FFE
07EE
000E
000E
001E
001C
007C
3FF8
3FF0
3FC0
ENDCHAR
STARTCHAR h
ENCODING 104
SWIDTH 473 0
DWIDTH 18 0
BBX 15 26 2 0
BITMAP
E000
E000
E000
E000
E000
E000
E000
E000
EFC0
FFF0
FFF8
F07C
E01C
E01E
E00E
E00E
E00E
E00E
E00E
E00E
E00E
E00E
E00E
E00E
E00E
E00E
ENDCHAR
STARTCHAR i
ENCODING 105
SWIDTH 473 0
DWIDTH 18 0
BBX 12 25 4 0
BITMAP
0E00
1F00
1F00
0E00
0000
0000
0000
FE00
FE00
FE00
0E00
0E00
0E00
0E00
0E00
0E00
0E00
0E00
0E00
0E00
0E00
0F00
0FF0
07F0
03F0
ENDCHAR
STARTCHAR j
ENCODING 106
SWIDTH 473 0
DWIDTH 18 0
BBX 14 34 2 -8
BITMAP
0038
007C
007C
0038
0000
0000
0000
0000
03F8
03F8
03F8
0038
0038
0038
0038
0038
0038
0038
0038
0038
0038
0038
0038
0038
0038
0038
0038
0038
0078
0070
E1F0
FFE0
7FC0
1F00
ENDCHAR
STARTCHAR k
ENCODING 107
SWIDTH 473 0
DWIDTH 18 0
BBX 13 26 2 0
BITMAP
E000
E000
E000
E000
E000
E000
E000
E000
E038
E078
E0F0
E1E0
E3C0
E780
EF00
FE00
FC00
FC00
FE00
EF00
E780
E3C0
E1E0
E0F0
E078
E038
ENDCHAR
STARTCHAR l
ENCODING 108
SWIDTH 473 0
DWIDTH 18 0
BBX 13 26 4 0
BITMAP
FE00
FE00
FE00
0E00
0E00
0E00
0E00
0E00
0E00
0E00
0E00
0E00
0E00
0E00
0E00
0E00
0E00
0E00
0E00
0E00
0E00
0E00
0F00
0FF8
07F8
03F8
ENDCHAR
STARTCHAR m
ENCODING 109
SWIDTH 473 0
DWIDTH 18 0
BBX 15 18 2 0
BITMAP
EEF8
FFFC
FFFE
F7DE
E38E
E38E
E38E
E38E
E38E
E38E
E38E
E38E
E38E
E38E
E38E
E38E
E38E
E38E
ENDCHAR
STARTCHAR n
ENCODING 110
SWIDTH 473 0
DWIDTH 18 0
BBX 13 18 4 0
BITMAP
EF80
FFE0
FFF0
F0F0
E078
E038
E038
E038
E038
E038
E038
E038
E038
E038
E038
E038
E038
E038
ENDCHAR
STARTCHAR o
ENCODING 111
SWIDTH 473 0
DWIDTH 18 0
BBX 15 18 2 0
BITMAP
07C0
1FF0
3FF8
7C7C
701C
F01E
E00E
E00E
E00E
E00E
E00E
E00E
F01E
701C
7C7C
3FF8
1FF0
07C0
ENDCHAR
STARTCHAR p
ENCODING 112
SWIDTH 473 0
DWIDTH 18 0
BBX 15 26 2 -8
BITMAP
EFC0
FFF0
FFF8
F07C
E01C
E01E
E00E
E00E
E00E
E00E
E00E
E00E
E01E
E01C
F07C
FFF8
FFF0
EFC0
E000
E000
E000
E000
E000
E000
E000
E000
ENDCHAR
STARTCHAR q
ENCODING 113
SWIDTH 473 0
DWIDTH 18 0
BBX 15 26 2 -8
BITMAP
07EE
1FFE
3FFE
7C1E
700E
F00E
E00E
E00E
E00E
E00E
E00E
E00E
F00E
700E
7C1E
3FFE
1FFE
07EE
000E
000E
000E
000E
000E
000E
000E
000E
ENDCHAR
STARTCHAR r
ENCODING 114
SWIDTH 473 0
DWIDTH 18 0
BBX 15 18 2 0
BITMAP
E7F0
EFFC
FFFE
FC1E
F000
F000
E000
E000
E000
E000
E000
E000
E000
E000
E000
E000
E000
E000
ENDCHAR
STARTCHAR s
ENCODING 115
SWIDTH 473 0
DWIDTH 18 0
BBX 15 18 2 0
BITMAP
1FF0
7FFC
FFFE
F01E
E000
E000
F000
FF00
7FF0
1FFC
01FE
001E
000E
000E
F01E
FFFE
7FFC
1FF0
ENDCHAR
STARTCHAR t
ENCODING 116
SWIDTH 473 0
DWIDTH 18 0
BBX 15 26 2 0
BITMAP
0E00
0E00
0E00
0E00
0E00
0E00
0E00
0E00
FFF8
FFF8
FFF8
0E00
0E00
0E00
0E00
0E00
0E00
0E00
0E00
0E00
0E00
0F00
0780
07FE
03FE
00FE
ENDCHAR
STARTCHAR u
ENCODING 117
SWIDTH 473 0
DWIDTH 18 0
BBX 15 18 2 0
BITMAP
E00E
E00E
E00E
E00E
E00E
E00E
E00E
E00E
E00E
E00E
E00E
E00E
F00E
700E
7C1E
3FFE
1FFE
07EE
ENDCHAR
STARTCHAR v
ENCODING 118
SWIDTH 473 0
DWIDTH 18 0
BBX 15 18 2 0
BITMAP
E00E
E00E
E00E
E00E
E00E
E00E
701C
701C
3838
3838
1C70
1C70
0EE0
0EE0
07C0
07C0
0380
0380
ENDCHAR
STARTCHAR w
ENCODING 119
SWIDTH 473 0
DWIDTH 18 0
BBX 15 18 2 0
BITMAP
E00E
E00E
E00E
E00E
E00E
E00E
E00E
E38E
E38E
E38E
E7CE
E7CE
EEEE
EEEE
FC7E
7C7C
3838
3838
ENDCHAR
STARTCHAR x
ENCODING 120
SWIDTH 473 0
DWIDTH 18 0
BBX 15 18 2 0
BITMAP
E00E
E00E
E00E
F01E
783C
3C78
1EF0
0FE0
07C0
07C0
0FE0
1EF0
3C78
783C
F01E
E00E
E00E
E00E
ENDCHAR
STARTCHAR y
ENCODING 121
SWIDTH 473 0
DWIDTH 18 0
BBX 15 26 2 -8
BITMAP
E00E
E00E
E00E
E00E
E00E
E00E
E00E
E00E
E00E
E00E
E00E
E00E
F00E
700E
7C1E
3FFE
1FFE
07EE
000E
000E
001E
001C
007C
3FF8
3FF0
3FC0
ENDCHAR
STARTCHAR z
ENCODING 122
SWIDTH 473 0
DWIDTH 18 0
BBX 15 18 2 0
BITMAP
FFFE
FFFE
FFFE
001E
003C
0078
00F0
01E0
03C0
0780
0F00
1E00
3C00
7800
F000
FFFE
FFFE
FFFE
ENDCHAR
STARTCHAR braceleft
ENCODING 123
SWIDTH 473 0
DWIDTH 18 0
BBX 11 30 4 -2
BITMAP
0FE0
1FE0
3FE0
3C00
3800
3800
3800
3C00
1C00
1E00
0E00
0E00
1E00
7E00
FC00
FC00
7E00
1E00
0E00
0E00
1E00
1C00
3C00
3800
3800
3800
3C00
3FE0
1FE0
0FE0
ENDCHAR
STARTCHAR bar
ENCODING 124
SWIDTH 473 0
DWIDTH 18 0
BBX 3 28 8 -2
BITMAP
E0
E0
E0
E0
E0
E0
E0
E0
E0
E0
E0
E0
E0
E0
E0
E0
E0
E0
E0
E0
E0
E0
E0
E0
E0
E0
E0
E0
ENDCHAR
STARTCHAR braceright
ENCODING 125
SWIDTH 473 0
DWIDTH 18 0
BBX 11 30 4 -2
BITMAP
FE00
FF00
FF80
0780
0380
0380
0380
0780
0700
0F00
0E00
0E00
0F00
0FC0
07E0
07E0
0FC0
0F00
0E00
0E00
0F00
0700
0780
0380
0380
0380
0780
FF80
FF00
FE00
ENDCHAR
STARTCHAR asciitilde
ENCODING 126
SWIDTH 473 0
DWIDTH 18 0
BBX 15 6 2 12
BITMAP
3E0E
7F0E
FF8E
E3FE
E1FC
E0F8
ENDCHAR
STARTCHAR uni00A0
ENCODING 160
SWIDTH 473 0
DWIDTH 18 0
BBX 1 1 0 0
BITMAP
00
ENDCHAR
STARTCHAR exclamdown
ENCODING 161
SWIDTH 473 0
DWIDTH 18 0
BBX 5 24 7 -6
BITMAP
70
F8
F8
70
00
00
00
70
70
70
70
70
70
70
70
70
70
70
70
70
70
70
70
70
ENDCHAR
STARTCHAR cent
ENCODING 162
SWIDTH 473 0
DWIDTH 18 0
BBX 15 26 2 -4
BITMAP
0380
0380
0380
0380
07C0
1FF0
3FF8
7BBC
739E
F38E
E380
E380
E380
E380
E380
E380
F38E
739E
7BBC
3FF8
1FF0
07C0
0380
0380
0380
0380
ENDCHAR
STARTCHAR sterling
ENCODING 163
SWIDTH 473 0
DWIDTH 18 0
BBX 15 24 2 0
BITMAP
03F8
07FC
0FFE
0F0E
0E00
0E00
0E00
0E00
0E00
0E00
FFF8
FFF8
FFF8
0E00
0E00
0E00
0E00
0E00
1E00
1C00
3C00
7FFE
FFFE
FFFE
ENDCHAR
STARTCHAR currency
ENCODING 164
SWIDTH 473 0
DWIDTH 18 0
BBX 15 14 2 4
BITMAP
E7CE
FFFE
7EFC
3838
701C
F01E
E00E
E00E
F01E
701C
3838
7EFC
FFFE
E7CE
ENDCHAR
STARTCHAR yen
ENCODING 165
SWIDTH 473 0
DWIDTH 18 0
BBX 15 24 2 0
BITMAP
E00E
E00E
E00E
E00E
E00E
E00E
E00E
F01E
783C
3C78
1EF0
0FE0
FFFE
FFFE
FFFE
0380
FFFE
FFFE
FFFE
0380
0380
0380
0380
0380
ENDCHAR
STARTCHAR brokenbar
ENCODING 166
SWIDTH 473 0
DWIDTH 18 0
BBX 3 28 8 -2
BITMAP
E0
E0
E0
E0
E0
E0
E0
E0
E0
E0
E0
E0
00
00
00
00
E0
E0
E0
E0
E0
E0
E0
E0
E0
E0
E0
E0
ENDCHAR
STARTCHAR section
ENCODING 167
SWIDTH 473 0
DWIDTH 18 0
BBX 11 26 4 -2
BITMAP
3F80
7FC0
FFE0
F0E0
E000
E000
E000
F000
7800
7E00
7F00
F780
E3C0
E1E0
F0E0
78E0
3DE0
1FC0
0FC0
03C0
01E0
00E0
E1E0
FFE0
7FC0
3F80
ENDCHAR
STARTCHAR dieresis
ENCODING 168
SWIDTH 473 0
DWIDTH 18 0
BBX 9 3 5 22
BITMAP
F780
F780
F780
ENDCHAR
STARTCHAR copyright
ENCODING 169
SWIDTH 473 0
DWIDTH 18 0
BBX 16 22 2 2
BITMAP
07E0
1FF8
3FFC
781E
73CE
E7E7
EFF7
EE77
EE07
EE07
EE07
EE07
EE07
EE07
EE77
EFF7
E7E7
73CE
781E
3FFC
1FF8
07E0
ENDCHAR
STARTCHAR ordfeminine
ENCODING 170
SWIDTH 473 0
DWIDTH 18 0
BBX 11 16 4 10
BITMAP
3F80
3FC0
01E0
00E0
3FE0
7FE0
F0E0
E0E0
E0E0
F0E0
7FE0
3FE0
0000
0000
FFE0
FFE0
ENDCHAR
STARTCHAR guillemotleft
ENCODING 171
SWIDTH 473 0
DWIDTH 18 0
BBX 15 14 2 6
BITMAP
038E
079E
0F3C
1E78
3CF0
79E0
F3C0
F3C0
79E0
3CF0
1E78
0F3C
079E
038E
ENDCHAR
STARTCHAR logicalnot
ENCODING 172
SWIDTH 473 0
DWIDTH 18 0
BBX 15 6 2 6
BITMAP
FFFE
FFFE
FFFE
000E
000E
000E
ENDCHAR
STARTCHAR uni00AD
ENCODING 173
SWIDTH 473 0
DWIDTH 18 0
BBX 13 3 4 9
BITMAP
FFF8
FFF8
FFF8
ENDCHAR
STARTCHAR registered
ENCODING 174
SWIDTH 473 0
DWIDTH 18 0
BBX 16 22 2 2
BITMAP
07E0
1FF8
3FFC
781E
7FCE
EFE7
EEF7
EE77
EE77
EEF7
EFE7
EFE7
EFE7
EEE7
EEE7
EE77
EE77
7E7E
781E
3FFC
1FF8
07E0
ENDCHAR
STARTCHAR macron
ENCODING 175
SWIDTH 473 0
DWIDTH 18 0
BBX 11 3 4 23
BITMAP
FFE0
FFE0
FFE0
ENDCHAR
STARTCHAR degree
ENCODING 176
SWIDTH 473 0
DWIDTH 18 0
BBX 11 10 4 16
BITMAP
1F00
3F80
7FC0
F1E0
E0E0
E0E0
F1E0
7FC0
3F80
1F00
ENDCHAR
STARTCHAR plusminus
ENCODING 177
SWIDTH 473 0
DWIDTH 18 0
BBX 15 19 2 -1
BITMAP
0380
0380
0380
0380
0380
0380
FFFE
FFFE
FFFE
0380
0380
0380
0380
0380
0000
0000
FFFE
FFFE
FFFE
ENDCHAR
STARTCHAR uni00B2
ENCODING 178
SWIDTH 473 0
DWIDTH 18 0
BBX 11 14 4 14
BITMAP
3F80
7FC0
F1E0
E0E0
00E0
01E0
03C0
0780
0F00
1E00
3C00
7800
FFE0
FFE0
ENDCHAR
STARTCHAR uni00B3
ENCODING 179
SWIDTH 473 0
DWIDTH 18 0
BBX 11 14 4 14
BITMAP
7F80
FFC0
E1E0
00E0
00E0
01E0
3FC0
3FC0
01E0
00E0
00E0
E1E0
FFC0
7F80
ENDCHAR
STARTCHAR acute
ENCODING 180
SWIDTH 473 0
DWIDTH 18 0
BBX 7 6 6 20
BITMAP
0E
1E
3C
78
F0
E0
ENDCHAR
STARTCHAR mu
ENCODING 181
SWIDTH 473 0
DWIDTH 18 0
BBX 16 26 2 -8
BITMAP
E01C
E01C
E01C
E01C
E01C
E01C
E01C
E01C
E01C
E01C
E01C
E01C
F03C
F03C
F87C
FFFE
EFEF
E7C7
E000
E000
E000
E000
E000
E000
E000
E000
ENDCHAR
STARTCHAR paragraph
ENCODING 182
SWIDTH 473 0
DWIDTH 18 0
BBX 15 24 2 0
BITMAP
07FE
1FFE
3FEE
7FEE
7FEE
FFEE
FFEE
FFEE
FFEE
7FEE
7FEE
3FEE
1FEE
07EE
00EE
00EE
00EE
00EE
00EE
00EE
00EE
00EE
00EE
00EE
ENDCHAR
STARTCHAR periodcentered
ENCODING 183
SWIDTH 473 0
DWIDTH 18 0
BBX 6 6 7 9
BITMAP
30
78
FC
FC
78
30
ENDCHAR
STARTCHAR cedilla
ENCODING 184
SWIDTH 473 0
DWIDTH 18 0
BBX 7 8 6 -8
BITMAP
38
3C
1E
0E
1E
FE
FC
F8
ENDCHAR
STARTCHAR uni00B9
ENCODING 185
SWIDTH 473 0
DWIDTH 18 0
BBX 11 14 4 14
BITMAP
0E00
1E00
3E00
7E00
FE00
EE00
0E00
0E00
0E00
0E00
0E00
0E00
FFE0
FFE0
ENDCHAR
STARTCHAR ordmasculine
ENCODING 186
SWIDTH 473 0
DWIDTH 18 0
BBX 11 16 4 10
BITMAP
1F00
3F80
7BC0
F1E0
E0E0
E0E0
E0E0
E0E0
F1E0
7BC0
3F80
1F00
0000
0000
FFE0
FFE0
ENDCHAR
STARTCHAR guillemotright
ENCODING 187
SWIDTH 473 0
DWIDTH 18 0
BBX 15 14 2 6
BITMAP
E380
F3C0
79E0
3CF0
1E78
0F3C
079E
079E
0F3C
1E78
3CF0
79E0
F3C0
E380
ENDCHAR
STARTCHAR onequarter
ENCODING 188
SWIDTH 473 0
DWIDTH 18 0
BBX 15 32 2 -4
BITMAP
0E00
1E00
3E00
7E00
FE00
EE00
0E00
0E00
0E00
0E00
0E00
0E0E
7FDC
7FF8
0070
00E0
01C0
0380
0738
0E78
1CF8
39F8
73F8
E7B8
0F38
0E38
0FFE
0FFE
0038
0038
0038
0038
ENDCHAR
STARTCHAR onehalf
ENCODING 189
SWIDTH 473 0
DWIDTH 18 0
BBX 16 32 2 -4
BITMAP
0E00
1E00
3E00
7E00
FE00
EE00
0E00
0E00
0E00
0E00
0E00
0E0E
7FDC
7FF8
0070
00E0
01C0
0380
077C
0EFE
1DCF
3B87
7007
E00F
001E
003C
0078
00F0
01E0
03C0
03FF
03FF
ENDCHAR
STARTCHAR threequarters
ENCODING 190
SWIDTH 473 0
DWIDTH 18 0
BBX 15 32 2 -4
BITMAP
7F80
FFC0
E1E0
00E0
00E0
01E0
3FC0
3FC0
01E0
00E0
00E0
E1EE
FFDC
7FB8
0070
00E0
01C0
0380
0738
0E78
1CF8
39F8
73F8
E7B8
0F38
0E38
0FFE
0FFE
0038
0038
0038
0038
ENDCHAR
STARTCHAR questiondown
ENCODING 191
SWIDTH 473 0
DWIDTH 18 0
BBX 15 24 2 -6
BITMAP
0380
07C0
07C0
0380
0000
0000
0380
0380
0380
0780
0F00
1E00
3C00
7800
7000
F000
E000
E000
F00E
701E
7C7C
3FF8
1FF0
07C0
ENDCHAR
STARTCHAR Agrave
ENCODING 192
SWIDTH 473 0
DWIDTH 18 0
BBX 15 30 2 0
BITMAP
1E00
0F00
0780
0380
0000
0000
0380
0380
07C0
07C0
0EE0
0EE0
1C70
1C70
3838
3838
701C
701C
E00E
FFFE
FFFE
FFFE
E00E
E00E
E00E
E00E
E00E
E00E
E00E
E00E
ENDCHAR
STARTCHAR Aacute
ENCODING 193
SWIDTH 473 0
DWIDTH 18 0
BBX 15 30 2 0
BITMAP
00F0
01E0
03C0
0380
0000
0000
0380
0380
07C0
07C0
0EE0
0EE0
1C70
1C70
3838
3838
701C
701C
E00E
FFFE
FFFE
FFFE
E00E
E00E
E00E
E00E
E00E
E00E
E00E
E00E
ENDCHAR
STARTCHAR Acircumflex
ENCODING 194
SWIDTH 473 0
DWIDTH 18 0
BBX 15 30 2 0
BITMAP
0380
07C0
0EE0
1C70
0000
0000
0380
0380
07C0
07C0
0EE0
0EE0
1C70
1C70
3838
3838
701C
701C
E00E
FFFE
FFFE
FFFE
E00E
E00E
E00E
E00E
E00E
E00E
E00E
E00E
ENDCHAR
STARTCHAR Atilde
ENCODING 195
SWIDTH 473 0
DWIDTH 18 0
BBX 15 30 2 0
BITMAP
1E0C
3F9C
73F8
60F0
0000
0000
0380
0380
07C0
07C0
0EE0
0EE0
1C70
1C70
3838
3838
701C
701C
E00E
FFFE
FFFE
FFFE
E00E
E00E
E00E
E00E
E00E
E00E
E00E
E00E
ENDCHAR
STARTCHAR Adieresis
ENCODING 196
SWIDTH 473 0
DWIDTH 18 0
BBX 15 29 2 0
BITMAP
1EF0
1EF0
1EF0
0000
0000
0380
0380
07C0
07C0
0EE0
0EE0
1C70
1C70
3838
3838
701C
701C
E00E
FFFE
FFFE
FFFE
E00E
E00E
E00E
E00E
E00E
E00E
E00E
E00E
ENDCHAR
STARTCHAR Aring
ENCODING 197
SWIDTH 473 0
DWIDTH 18 0
BBX 15 30 2 0
BITMAP
07C0
0EE0
0C60
0C60
0EE0
07C0
0380
0380
07C0
07C0
0EE0
0EE0
1C70
1C70
3838
3838
701C
701C
E00E
FFFE
FFFE
FFFE
E00E
E00E
E00E
E00E
E00E
E00E
E00E
E00E
ENDCHAR
STARTCHAR AE
ENCODING 198
SWIDTH 473 0
DWIDTH 18 0
BBX 16 24 2 0
BITMAP
03FF
07FF
0FFF
0FC0
1DC0
1DC0
39C0
39C0
71C0
71C0
E1FE
E1FE
E1FE
E1C0
FFC0
FFC0
FFC0
E1C0
E1C0
E1C0
E1C0
E1FF
E1FF
E1FF
ENDCHAR
STARTCHAR Ccedilla
ENCODING 199
SWIDTH 473 0
DWIDTH 18 0
BBX 15 32 2 -8
BITMAP
07C0
1FF0
3FF8
7C7C
701C
F01E
E00E
E000
E000
E000
E000
E000
E000
E000
E000
E000
E000
E00E
F01E
701C
7C7C
3FF8
1FF0
07C0
0380
03C0
01E0
00E0
01E0
0FE0
0FC0
0F80
ENDCHAR
STARTCHAR Egrave
ENCODING 200
SWIDTH 473 0
DWIDTH 18 0
BBX 15 30 2 0
BITMAP
1E00
0F00
0780
0380
0000
0000
FFFE
FFFE
FFFE
E000
E000
E000
E000
E000
E000
E000
FFF8
FFF8
FFF8
E000
E000
E000
E000
E000
E000
E000
E000
FFFE
FFFE
FFFE
ENDCHAR
STARTCHAR Eacute
ENCODING 201
SWIDTH 473 0
DWIDTH 18 0
BBX 15 30 2 0
BITMAP
00F0
01E0
03C0
0380
0000
0000
FFFE
FFFE
FFFE
E000
E000
E000
E000
E000
E000
E000
FFF8
FFF8
FFF8
E000
E000
E000
E000
E000
E000
E000
E000
FFFE
FFFE
FFFE
ENDCHAR
STARTCHAR Ecircumflex
ENCODING 202
SWIDTH 473 0
DWIDTH 18 0
BBX 15 30 2 0
BITMAP
0380
07C0
0EE0
1C70
0000
0000
FFFE
FFFE
FFFE
E000
E000
E000
E000
E000
E000
E000
FFF8
FFF8
FFF8
E000
E000
E000
E000
E000
E000
E000
E000
FFFE
FFFE
FFFE
ENDCHAR
STARTCHAR Edieresis
ENCODING 203
SWIDTH 473 0
DWIDTH 18 0
BBX 15 29 2 0
BITMAP
1EF0
1EF0
1EF0
0000
0000
FFFE
FFFE
FFFE
E000
E000
E000
E000
E000
E000
E000
FFF8
FFF8
FFF8
E000
E000
E000
E000
E000
E000
E000
E000
FFFE
FFFE
FFFE
ENDCHAR
STARTCHAR Igrave
ENCODING 204
SWIDTH 473 0
DWIDTH 18 0
BBX 15 30 2 0
BITMAP
1E00
0F00
0780
0380
0000
0000
FFFE
FFFE
FFFE
0380
0380
0380
0380
0380
0380
0380
0380
0380
0380
0380
0380
0380
0380
0380
0380
0380
0380
FFFE
FFFE
FFFE
ENDCHAR
STARTCHAR Iacute
ENCODING 205
SWIDTH 473 0
DWIDTH 18 0
BBX 15 30 2 0
BITMAP
00F0
01E0
03C0
0380
0000
0000
FFFE
FFFE
FFFE
0380
0380
0380
0380
0380
0380
0380
0380
0380
0380
0380
0380
0380
0380
0380
0380
0380
0380
FFFE
FFFE
FFFE
ENDCHAR
STARTCHAR Icircumflex
ENCODING 206
SWIDTH 473 0
DWIDTH 18 0
BBX 15 30 2 0
BITMAP
0380
07C0
0EE0
1C70
0000
0000
FFFE
FFFE
FFFE
0380
0380
0380
0380
0380
0380
0380
0380
0380
0380
0380
0380
0380
0380
0380
0380
0380
0380
FFFE
FFFE
FFFE
ENDCHAR
STARTCHAR Idieresis
ENCODING 207
SWIDTH 473 0
DWIDTH 18 0
BBX 15 29 2 0
BITMAP
1EF0
1EF0
1EF0
0000
0000
FFFE
FFFE
FFFE
0380
0380
0380
0380
0380
0380
0380
0380
0380
0380
0380
0380
0380
0380
0380
0380
0380
0380
FFFE
FFFE
FFFE
ENDCHAR
STARTCHAR Eth
ENCODING 208
SWIDTH 473 0
DWIDTH 18 0
BBX 15 24 2 0
BITMAP
3F00
3FC0
3FE0
39F0
3878
383C
381C
381E
380E
380E
FF8E
FF8E
FF8E
380E
380E
380E
381E
381C
383C
3878
39F0
3FE0
3FC0
3F00
ENDCHAR
STARTCHAR Ntilde
ENCODING 209
SWIDTH 473 0
DWIDTH 18 0
BBX 15 30 2 0
BITMAP
1E0C
3F9C
73F8
60F0
0000
0000
E00E
F00E
F00E
F80E
F80E
FC0E
FC0E
EE0E
EE0E
E70E
E70E
E38E
E38E
E1CE
E1CE
E0EE
E0EE
E07E
E07E
E03E
E03E
E01E
E01E
E00E
ENDCHAR
STARTCHAR Ograve
ENCODING 210
SWIDTH 473 0
DWIDTH 18 0
BBX 15 30 2 0
BITMAP
1E00
0F00
0780
0380
0000
0000
07C0
1FF0
3FF8
7C7C
701C
F01E
E00E
E00E
E00E
E00E
E00E
E00E
E00E
E00E
E00E
E00E
E00E
E00E
F01E
701C
7C7C
3FF8
1FF0
07C0
ENDCHAR
STARTCHAR Oacute
ENCODING 211
SWIDTH 473 0
DWIDTH 18 0
BBX 15 30 2 0
BITMAP
00F0
01E0
03C0
0380
0000
0000
07C0
1FF0
3FF8
7C7C
701C
F01E
E00E
E00E
E00E
E00E
E00E
E00E
E00E
E00E
E00E
E00E
E00E
E00E
F01E
701C
7C7C
3FF8
1FF0
07C0
ENDCHAR
STARTCHAR Ocircumflex
ENCODING 212
SWIDTH 473 0
DWIDTH 18 0
BBX 15 30 2 0
BITMAP
0380
07C0
0EE0
1C70
0000
0000
07C0
1FF0
3FF8
7C7C
701C
F01E
E00E
E00E
E00E
E00E
E00E
E00E
E00E
E00E
E00E
E00E
E00E
E00E
F01E
701C
7C7C
3FF8
1FF0
07C0
ENDCHAR
STARTCHAR Otilde
ENCODING 213
SWIDTH 473 0
DWIDTH 18 0
BBX 15 30 2 0
BITMAP
1E0C
3F9C
73F8
60F0
0000
0000
07C0
1FF0
3FF8
7C7C
701C
F01E
E00E
E00E
E00E
E00E
E00E
E00E
E00E
E00E
E00E
E00E
E00E
E00E
F01E
701C
7C7C
3FF8
1FF0
07C0
ENDCHAR
STARTCHAR Odieresis
ENCODING 214
SWIDTH 473 0
DWIDTH 18 0
BBX 15 29 2 0
BITMAP
1EF0
1EF0
1EF0
0000
0000
07C0
1FF0
3FF8
7C7C
701C
F01E
E00E
E00E
E00E
E00E
E00E
E00E
E00E
E00E
E00E
E00E
E00E
E00E
F01E
701C
7C7C
3FF8
1FF0
07C0
ENDCHAR
STARTCHAR multiply
ENCODING 215
SWIDTH 473 0
DWIDTH 18 0
BBX 15 14 2 4
BITMAP
E00E
F01E
783C
3C78
1EF0
0FE0
07C0
07C0
0FE0
1EF0
3C78
783C
F01E
E00E
ENDCHAR
STARTCHAR Oslash
ENCODING 216
SWIDTH 473 0
DWIDTH 18 0
BBX 15 24 2 0
BITMAP
07CE
1FFE
3FFC
7C7C
703C
F03E
E07E
E07E
E0EE
E0EE
E1CE
E1CE
E38E
E78E
E70E
EE0E
EE0E
FC0E
F81E
781C
7C3C
7FF8
FFF0
E7C0
ENDCHAR
STARTCHAR Ugrave
ENCODING 217
SWIDTH 473 0
DWIDTH 18 0
BBX 15 30 2 0
BITMAP
1E00
0F00
0780
0380
0000
0000
E00E
E00E
E00E
E00E
E00E
E00E
E00E
E00E
E00E
E00E
E00E
E00E
E00E
E00E
E00E
E00E
E00E
E00E
F01E
701C
7C7C
3FF8
1FF0
07C0
ENDCHAR
STARTCHAR Uacute
ENCODING 218
SWIDTH 473 0
DWIDTH 18 0
BBX 15 30 2 0
BITMAP
00F0
01E0
03C0
0380
0000
0000
E00E
E00E
E00E
E00E
E00E
E00E
E00E
E00E
E00E
E00E
E00E
E00E
E00E
E00E
E00E
E00E
E00E
E00E
F01E
701C
7C7C
3FF8
1FF0
07C0
ENDCHAR
STARTCHAR Ucircumflex
ENCODING 219
SWIDTH 473 0
DWIDTH 18 0
BBX 15 30 2 0
BITMAP
0380
07C0
0EE0
1C70
0000
0000
E00E
E00E
E00E
E00E
E00E
E00E
E00E
E00E
E00E
E00E
E00E
E00E
E00E
E00E
E00E
E00E
E00E
E00E
F01E
701C
7C7C
3FF8
1FF0
07C0
ENDCHAR
STARTCHAR Udieresis
ENCODING 220
SWIDTH 473 0
DWIDTH 18 0
BBX 15 29 2 0
BITMAP
1EF0
1EF0
1EF0
0000
0000
E00E
E00E
E00E
E00E
E00E
E00E
E00E
E00E
E00E
E00E
E00E
E00E
E00E
E00E
E00E
E00E
E00E
E00E
F01E
701C
7C7C
3FF8
1FF0
07C0
ENDCHAR
STARTCHAR Yacute
ENCODING 221
SWIDTH 473 0
DWIDTH 18 0
BBX 15 30 2 0
BITMAP
00F0
01E0
03C0
0380
0000
0000
E00E
E00E
E00E
E00E
E00E
E00E
E00E
F01E
783C
3C78
1EF0
0FE0
07C0
0380
0380
0380
0380
0380
0380
0380
0380
0380
0380
0380
ENDCHAR
STARTCHAR Thorn
ENCODING 222
SWIDTH 473 0
DWIDTH 18 0
BBX 15 24 2 0
BITMAP
E000
E000
E000
E000
FFC0
FFF0
FFF8
E07C
E01C
E01E
E00E
E00E
E01E
E01C
E07C
FFF8
FFF0
FFC0
E000
E000
E000
E000
E000
E000
ENDCHAR
STARTCHAR germandbls
ENCODING 223
SWIDTH 473 0
DWIDTH 18 0
BBX 15 26 2 0
BITMAP
3FE0
7FF0
7FF8
F038
E038
E038
E078
E070
E0F0
E1E0
E3C0
E380
E380
E3C0
E1E0
E0F0
E078
E03C
E01E
E00E
E00E
E00E
EE1E
EFFE
E7FC
E3F8
ENDCHAR
STARTCHAR agrave
ENCODING 224
SWIDTH 473 0
DWIDTH 18 0
BBX 15 24 2 0
BITMAP
1E00
0F00
0780
0380
0000
0000
1FF0
7FFC
FFFC
F01E
000E
000E
000E
1FFE
7FFE
7FFE
F00E
E00E
E00E
E00E
F01E
7FFE
7FFE
1FEE
ENDCHAR
STARTCHAR aacute
ENCODING 225
SWIDTH 473 0
DWIDTH 18 0
BBX 15 24 2 0
BITMAP
00F0
01E0
03C0
0380
0000
0000
1FF0
7FFC
FFFC
F01E
000E
000E
000E
1FFE
7FFE
7FFE
F00E
E00E
E00E
E00E
F01E
7FFE
7FFE
1FEE
ENDCHAR
STARTCHAR acircumflex
ENCODING 226
SWIDTH 473 0
DWIDTH 18 0
BBX 15 24 2 0
BITMAP
0380
07C0
0EE0
1C70
0000
0000
1FF0
7FFC
FFFC
F01E
000E
000E
000E
1FFE
7FFE
7FFE
F00E
E00E
E00E
E00E
F01E
7FFE
7FFE
1FEE
ENDCHAR
STARTCHAR atilde
ENCODING 227
SWIDTH 473 0
DWIDTH 18 0
BBX 15 24 2 0
BITMAP
1E0C
3F9C
73F8
60F0
0000
0000
1FF0
7FFC
FFFC
F01E
000E
000E
000E
1FFE
7FFE
7FFE
F00E
E00E
E00E
E00E
F01E
7FFE
7FFE
1FEE
ENDCHAR
STARTCHAR adieresis
ENCODING 228
SWIDTH 473 0
DWIDTH 18 0
BBX 15 23 2 0
BITMAP
1EF0
1EF0
1EF0
0000
0000
1FF0
7FFC
FFFC
F01E
000E
000E
000E
1FFE
7FFE
7FFE
F00E
E00E
E00E
E00E
F01E
7FFE
7FFE
1FEE
ENDCHAR
STARTCHAR aring
ENCODING 229
SWIDTH 473 0
DWIDTH 18 0
BBX 15 25 2 0
BITMAP
07C0
0EE0
0C60
0C60
0EE0
07C0
0000
1FF0
7FFC
FFFC
F01E
000E
000E
000E
1FFE
7FFE
7FFE
F00E
E00E
E00E
E00E
F01E
7FFE
7FFE
1FEE
ENDCHAR
STARTCHAR ae
ENCODING 230
SWIDTH 473 0
DWIDTH 18 0
BBX 15 18 2 0
BITMAP
3EF8
7FFC
FFFE
E78E
038E
038E
038E
1F8E
3FFE
7FFE
F3FE
E380
E380
E380
E78E
FFFE
7FFC
3EF8
ENDCHAR
STARTCHAR ccedilla
ENCODING 231
SWIDTH 473 0
DWIDTH 18 0
BBX 15 26 2 -8
BITMAP
07C0
1FF0
3FF8
7C3C
701E
F00E
E000
E000
E000
E000
E000
E000
F00E
701E
7C3C
3FF8
1FF0
07C0
0380
03C0
01E0
00E0
01E0
0FE0
0FC0
0F80
ENDCHAR
STARTCHAR egrave
ENCODING 232
SWIDTH 473 0
DWIDTH 18 0
BBX 15 24 2 0
BITMAP
1E00
0F00
0780
0380
0000
0000
07C0
1FF0
3FF8
783C
701C
F01E
E00E
FFFE
FFFE
FFFE
E000
E000
F000
7000
7C1E
3FFE
1FFC
07F0
ENDCHAR
STARTCHAR eacute
ENCODING 233
SWIDTH 473 0
DWIDTH 18 0
BBX 15 24 2 0
BITMAP
00F0
01E0
03C0
0380
0000
0000
07C0
1FF0
3FF8
783C
701C
F01E
E00E
FFFE
FFFE
FFFE
E000
E000
F000
7000
7C1E
3FFE
1FFC
07F0
ENDCHAR
STARTCHAR ecircumflex
ENCODING 234
SWIDTH 473 0
DWIDTH 18 0
BBX 15 24 2 0
BITMAP
0380
07C0
0EE0
1C70
0000
0000
07C0
1FF0
3FF8
783C
701C
F01E
E00E
FFFE
FFFE
FFFE
E000
E000
F000
7000
7C1E
3FFE
1FFC
07F0
ENDCHAR
STARTCHAR edieresis
ENCODING 235
SWIDTH 473 0
DWIDTH 18 0
BBX 15 23 2 0
BITMAP
1EF0
1EF0
1EF0
0000
0000
07C0
1FF0
3FF8
783C
701C
F01E
E00E
FFFE
FFFE
FFFE
E000
E000
F000
7000
7C1E
3FFE
1FFC
07F0
ENDCHAR
STARTCHAR igrave
ENCODING 236
SWIDTH 473 0
DWIDTH 18 0
BBX 12 24 4 0
BITMAP
7800
3C00
1E00
0E00
0000
0000
FE00
FE00
FE00
0E00
0E00
0E00
0E00
0E00
0E00
0E00
0E00
0E00
0E00
0E00
0F00
0FF0
07F0
03F0
ENDCHAR
STARTCHAR iacute
ENCODING 237
SWIDTH 473 0
DWIDTH 18 0
BBX 12 24 4 0
BITMAP
03C0
0780
0F00
0E00
0000
0000
FE00
FE00
FE00
0E00
0E00
0E00
0E00
0E00
0E00
0E00
0E00
0E00
0E00
0E00
0F00
0FF0
07F0
03F0
ENDCHAR
STARTCHAR icircumflex
ENCODING 238
SWIDTH 473 0
DWIDTH 18 0
BBX 12 24 4 0
BITMAP
0E00
1F00
3B80
71C0
0000
0000
FE00
FE00
FE00
0E00
0E00
0E00
0E00
0E00
0E00
0E00
0E00
0E00
0E00
0E00
0F00
0FF0
07F0
03F0
ENDCHAR
STARTCHAR idieresis
ENCODING 239
SWIDTH 473 0
DWIDTH 18 0
BBX 12 23 4 0
BITMAP
7BC0
7BC0
7BC0
0000
0000
FE00
FE00
FE00
0E00
0E00
0E00
0E00
0E00
0E00
0E00
0E00
0E00
0E00
0E00
0F00
0FF0
07F0
03F0
ENDCHAR
STARTCHAR eth
ENCODING 240
SWIDTH 473 0
DWIDTH 18 0
BBX 15 27 2 0
BITMAP
071C
07B8
01F0
00E0
01F0
03F0
0738
0E38
001C
001C
000E
07CE
1FEE
3FFE
7C7E
701E
F01E
E00E
E00E
E00E
E00E
F01E
701C
7C7C
3FF8
1FF0
07C0
ENDCHAR
STARTCHAR ntilde
ENCODING 241
SWIDTH 473 0
DWIDTH 18 0
BBX 13 24 4 0
BITMAP
3C18
7F38
E7F0
C1E0
0000
0000
EF80
FFE0
FFF0
F0F0
E078
E038
E038
E038
E038
E038
E038
E038
E038
E038
E038
E038
E038
E038
ENDCHAR
STARTCHAR ograve
ENCODING 242
SWIDTH 473 0
DWIDTH 18 0
BBX 15 24 2 0
BITMAP
1E00
0F00
0780
0380
0000
0000
07C0
1FF0
3FF8
7C7C
701C
F01E
E00E
E00E
E00E
E00E
E00E
E00E
F01E
701C
7C7C
3FF8
1FF0
07C0
ENDCHAR
STARTCHAR oacute
ENCODING 243
SWIDTH 473 0
DWIDTH 18 0
BBX 15 24 2 0
BITMAP
00F0
01E0
03C0
0380
0000
0000
07C0
1FF0
3FF8
7C7C
701C
F01E
E00E
E00E
E00E
E00E
E00E
E00E
F01E
701C
7C7C
3FF8
1FF0
07C0
ENDCHAR
STARTCHAR ocircumflex
ENCODING 244
SWIDTH 473 0
DWIDTH 18 0
BBX 15 24 2 0
BITMAP
0380
07C0
0EE0
1C70
0000
0000
07C0
1FF0
3FF8
7C7C
701C
F01E
E00E
E00E
E00E
E00E
E00E
E00E
F01E
701C
7C7C
3FF8
1FF0
07C0
ENDCHAR
STARTCHAR otilde
ENCODING 245
SWIDTH 473 0
DWIDTH 18 0
BBX 15 24 2 0
BITMAP
1E0C
3F9C
73F8
60F0
0000
0000
07C0
1FF0
3FF8
7C7C
701C
F01E
E00E
E00E
E00E
E00E
E00E
E00E
F01E
701C
7C7C
3FF8
1FF0
07C0
ENDCHAR
STARTCHAR odieresis
ENCODING 246
SWIDTH 473 0
DWIDTH 18 0
BBX 15 23 2 0
BITMAP
1EF0
1EF0
1EF0
0000
0000
07C0
1FF0
3FF8
7C7C
701C
F01E
E00E
E00E
E00E
E00E
E00E
E00E
F01E
701C
7C7C
3FF8
1FF0
07C0
ENDCHAR
STARTCHAR divide
ENCODING 247
SWIDTH 473 0
DWIDTH 18 0
BBX 15 15 2 3
BITMAP
0380
07C0
07C0
0380
0000
0000
FFFE
FFFE
FFFE
0000
0000
0380
07C0
07C0
0380
ENDCHAR
STARTCHAR oslash
ENCODING 248
SWIDTH 473 0
DWIDTH 18 0
BBX 15 18 2 0
BITMAP
07CE
1FFE
3FFC
7C38
707C
F0FE
E1EE
E1CE
E3CE
E78E
E70E
EF0E
FE1E
7C1C
387C
7FF8
FFF0
E7C0
ENDCHAR
STARTCHAR ugrave
ENCODING 249
SWIDTH 473 0
DWIDTH 18 0
BBX 15 24 2 0
BITMAP
1E00
0F00
0780
0380
0000
0000
E00E
E00E
E00E
E00E
E00E
E00E
E00E
E00E
E00E
E00E
E00E
E00E
F00E
700E
7C1E
3FFE
1FFE
07EE
ENDCHAR
STARTCHAR uacute
ENCODING 250
SWIDTH 473 0
DWIDTH 18 0
BBX 15 24 2 0
BITMAP
00F0
01E0
03C0
0380
0000
0000
E00E
E00E
E00E
E00E
E00E
E00E
E00E
E00E
E00E
E00E
E00E
E00E
F00E
700E
7C1E
3FFE
1FFE
07EE
ENDCHAR
STARTCHAR ucircumflex
ENCODING 251
SWIDTH 473 0
DWIDTH 18 0
BBX 15 24 2 0
BITMAP
0380
07C0
0EE0
1C70
0000
0000
E00E
E00E
E00E
E00E
E00E
E00E
E00E
E00E
E00E
E00E
E00E
E00E
F00E
700E
7C1E
3FFE
1FFE
07EE
ENDCHAR
STARTCHAR udieresis
ENCODING 252
SWIDTH 473 0
DWIDTH 18 0
BBX 15 23 2 0
BITMAP
1EF0
1EF0
1EF0
0000
0000
E00E
E00E
E00E
E00E
E00E
E00E
E00E
E00E
E00E
E00E
E00E
E00E
F00E
700E
7C1E
3FFE
1FFE
07EE
ENDCHAR
STARTCHAR yacute
ENCODING 253
SWIDTH 473 0
DWIDTH 18 0
BBX 15 32 2 -8
BITMAP
00F0
01E0
03C0
0380
0000
0000
E00E
E00E
E00E
E00E
E00E
E00E
E00E
E00E
E00E
E00E
E00E
E00E
F00E
700E
7C1E
3FFE
1FFE
07EE
000E
000E
001E
001C
007C
3FF8
3FF0
3FC0
ENDCHAR
STARTCHAR thorn
ENCODING 254
SWIDTH 473 0
DWIDTH 18 0
BBX 15 34 2 -8
BITMAP
E000
E000
E000
E000
E000
E000
E000
E000
E7C0
EFF0
FFF8
F87C
F01C
E01E
E00E
E00E
E00E
E00E
E00E
E00E
E01E
F01C
F87C
FFF8
EFF0
E7C0
E000
E000
E000
E000
E000
E000
E000
E000
ENDCHAR
STARTCHAR ydieresis
ENCODING 255
SWIDTH 473 0
DWIDTH 18 0
BBX 15 31 2 -8
BITMAP
1EF0
1EF0
1EF0
0000
0000
E00E
E00E
E00E
E00E
E00E
E00E
E00E
E00E
E00E
E00E
E00E
E00E
F00E
700E
7C1E
3FFE
1FFE
07EE
000E
000E
001E
001C
007C
3FF8
3FF0
3FC0
ENDCHAR
STARTCHAR lambda
ENCODING 955
SWIDTH 473 0
DWIDTH 18 0
BBX 16 24 2 0
BITMAP
FE00
FF00
FF00
0780
0380
0380
0780
07C0
07C0
0FC0
0FE0
0CE0
1CE0
1CE0
1CF0
3870
3870
3870
7078
7038
7038
E03F
E01F
E00F
ENDCHAR
STARTCHAR uni2B61
ENCODING 11105
SWIDTH 473 0
DWIDTH 18 0
BBX 11 25 4 2
BITMAP
0400
0E00
1F00
3F80
7FC0
FFE0
0E00
0E00
0E00
0E00
0E00
0E00
0E00
0E00
0E00
0E00
0E00
0E00
0E00
0E00
0E00
0E00
0E00
0E00
0E00
ENDCHAR
STARTCHAR uni2B63
ENCODING 11107
SWIDTH 473 0
DWIDTH 18 0
BBX 11 25 4 -1
BITMAP
0E00
0E00
0E00
0E00
0E00
0E00
0E00
0E00
0E00
0E00
0E00
0E00
0E00
0E00
0E00
0E00
0E00
0E00
0E00
FFE0
7FC0
3F80
1F00
0E00
0400
ENDCHAR
STARTCHAR uni2B81
ENCODING 11137
SWIDTH 473 0
DWIDTH 18 0
BBX 18 28 0 -1
BITMAP
040000
0E0000
1F0000
3F9C00
7FDC00
FFFC00
0E1C00
0E1C00
0E1C00
0E1C00
0E1C00
0E1C00
0E1C00
0E1C00
0E1C00
0E1C00
0E1C00
0E1C00
0E1C00
0E1C00
0E1C00
0E1C00
0FFFC0
0EFF80
0E7F00
003E00
001C00
000800
ENDCHAR
STARTCHAR uni2B83
ENCODING 11139
SWIDTH 473 0
DWIDTH 18 0
BBX 18 28 0 -1
BITMAP
000800
001C00
003E00
0E7F00
0EFF80
0FFFC0
0E1C00
0E1C00
0E1C00
0E1C00
0E1C00
0E1C00
0E1C00
0E1C00
0E1C00
0E1C00
0E1C00
0E1C00
0E1C00
0E1C00
0E1C00
0E1C00
FFFC00
7FDC00
3F9C00
1F0000
0E0000
040000
ENDCHAR
STARTCHAR LIG
ENCODING -1
SWIDTH 473 0
DWIDTH 18 0
BBX 1 1 0 0
BITMAP
00
ENDCHAR
STARTCHAR hyphen_greater.liga
ENCODING -1
SWIDTH 473 0
DWIDTH 18 0
BBX 31 22 -14 2
BITMAP
00003800
00003C00
00001E00
00000F00
00000780
000003C0
000001E0
000000F0
00000078
FFFFFFFC
FFFFFFFE
FFFFFFFE
FFFFFFFC
00000078
000000F0
000001E0
000003C0
00000780
00000F00
00001E00
00003C00
00003800
ENDCHAR
STARTCHAR hyphen_hyphen_greater.liga
ENCODING -1
SWIDTH 473 0
DWIDTH 18 0
BBX 49 22 -32 2
BITMAP
000000000E0000
000000000F0000
00000000078000
0000000003C000
0000000001E000
0000000000F000
00000000007800
00000000003C00
00000000001E00
FFFFFFFFFFFF00
FFFFFFFFFFFF80
FFFFFFFFFFFF80
FFFFFFFFFFFF00
00000000001E00
00000000003C00
00000000007800
0000000000F000
0000000001E000
0000000003C000
00000000078000
000000000F0000
000000000E0000
ENDCHAR
STARTCHAR equal_greater.liga
ENCODING -1
SWIDTH 473 0
DWIDTH 18 0
BBX 31 22 -14 2
BITMAP
00003800
00003C00
00001E00
00000F00
00000780
000003C0
FFFFFFE0
FFFFFFF0
FFFFFFF8
0000003C
0000001E
0000001E
0000003C
FFFFFFF8
FFFFFFF0
FFFFFFE0
000003C0
00000780
00000F00
00001E00
00003C00
00003800
ENDCHAR
STARTCHAR equal_equal_greater.liga
ENCODING -1
SWIDTH 473 0
DWIDTH 18 0
BBX 49 22 -32 2
BITMAP
000000000E0000
000000000F0000
00000000078000
0000000003C000
0000000001E000
0000000000F000
FFFFFFFFFFF800
FFFFFFFFFFFC00
FFFFFFFFFFFE00
00000000000F00
00000000000780
00000000000780
00000000000F00
FFFFFFFFFFFE00
FFFFFFFFFFFC00
FFFFFFFFFFF800
0000000000F000
0000000001E000
0000000003C000
00000000078000
000000000F0000
000000000E0000
ENDCHAR
STARTCHAR less_equal_equal.liga
ENCODING -1
SWIDTH 473 0
DWIDTH 18 0
BBX 49 22 -32 2
BITMAP
00380000000000
00780000000000
00F00000000000
01E00000000000
03C00000000000
07800000000000
0FFFFFFFFFFF80
1FFFFFFFFFFF80
3FFFFFFFFFFF80
78000000000000
F0000000000000
F0000000000000
78000000000000
3FFFFFFFFFFF80
1FFFFFFFFFFF80
0FFFFFFFFFFF80
07800000000000
03C00000000000
01E00000000000
00F00000000000
00780000000000
00380000000000
ENDCHAR
STARTCHAR less_hyphen_hyphen.liga
ENCODING -1
SWIDTH 473 0
DWIDTH 18 0
BBX 49 22 -32 2
BITMAP
00380000000000
00780000000000
00F00000000000
01E00000000000
03C00000000000
07800000000000
0F000000000000
1E000000000000
3C000000000000
7FFFFFFFFFFF80
FFFFFFFFFFFF80
FFFFFFFFFFFF80
7FFFFFFFFFFF80
3C000000000000
1E000000000000
0F000000000000
07800000000000
03C00000000000
01E00000000000
00F00000000000
00780000000000
00380000000000
ENDCHAR
STARTCHAR less_hyphen.liga
ENCODING -1
SWIDTH 473 0
DWIDTH 18 0
BBX 31 22 -14 2
BITMAP
00380000
00780000
00F00000
01E00000
03C00000
07800000
0F000000
1E000000
3C000000
7FFFFFFE
FFFFFFFE
FFFFFFFE
7FFFFFFE
3C000000
1E000000
0F000000
07800000
03C00000
01E00000
00F00000
00780000
00380000
ENDCHAR
STARTCHAR less_exclam_hyphen_hyphen.liga
ENCODING -1
SWIDTH 473 0
DWIDTH 18 0
BBX 67 24 -50 0
BITMAP
003803800000000000
007803800000000000
00F003800000000000
01E003800000000000
03C003800000000000
078003800000000000
0F0003800000000000
1E0003800000000000
3C0003800000000000
7FFFF39FFFFFFFFFE0
FFFFF39FFFFFFFFFE0
FFFFF39FFFFFFFFFE0
7FFFF39FFFFFFFFFE0
3C0003800000000000
1E0003800000000000
0F0003800000000000
078003800000000000
03C000000000000000
01E000000000000000
00F000000000000000
007803800000000000
003807C00000000000
000007C00000000000
000003800000000000
ENDCHAR
STARTCHAR less_equal_greater.liga
ENCODING -1
SWIDTH 473 0
DWIDTH 18 0
BBX 49 22 -32 2
BITMAP
003800000E0000
007800000F0000
00F00000078000
01E0000003C000
03C0000001E000
0780000000F000
0FFFFFFFFFF800
1FFFFFFFFFFC00
3FFFFFFFFFFE00
78000000000F00
F0000000000780
F0000000000780
78000000000F00
3FFFFFFFFFFE00
1FFFFFFFFFFC00
0FFFFFFFFFF800
0780000000F000
03C0000001E000
01E0000003C000
00F00000078000
007800000F0000
003800000E0000
ENDCHAR
STARTCHAR equal_equal.liga
ENCODING -1
SWIDTH 473 0
DWIDTH 18 0
BBX 30 12 -14 6
BITMAP
FFFFFFFC
FFFFFFFC
FFFFFFFC
00000000
00000000
00000000
00000000
00000000
00000000
FFFFFFFC
FFFFFFFC
FFFFFFFC
ENDCHAR
STARTCHAR equal_equal_equal.liga
ENCODING -1
SWIDTH 473 0
DWIDTH 18 0
BBX 49 15 -32 3
BITMAP
FFFE3FFE3FFF80
FFFE3FFE3FFF80
FFFE3FFE3FFF80
00000000000000
00000000000000
00000000000000
FFFE3FFE3FFF80
FFFE3FFE3FFF80
FFFE3FFE3FFF80
00000000000000
00000000000000
00000000000000
FFFE3FFE3FFF80
FFFE3FFE3FFF80
FFFE3FFE3FFF80
ENDCHAR
STARTCHAR exclam_equal.liga
ENCODING -1
SWIDTH 473 0
DWIDTH 18 0
BBX 30 24 -14 0
BITMAP
00000E00
00000E00
00001C00
00001C00
00003800
00003800
FFFFFFFC
FFFFFFFC
FFFFFFFC
0001C000
0001C000
00038000
00038000
00070000
00070000
FFFFFFFC
FFFFFFFC
FFFFFFFC
00380000
00380000
00700000
00700000
00E00000
00E00000
ENDCHAR
STARTCHAR exclam_equal_equal.liga
ENCODING -1
SWIDTH 473 0
DWIDTH 18 0
BBX 49 25 -32 -2
BITMAP
00000007000000
00000007000000
0000000E000000
0000000E000000
0000001C000000
FFFE3FFE3FFF80
FFFE3FFE3FFF80
FFFE3FFE3FFF80
00000070000000
000000E0000000
000000E0000000
FFFE3FFE3FFF80
FFFE3FFE3FFF80
FFFE3FFE3FFF80
00000380000000
00000700000000
00000700000000
FFFE3FFE3FFF80
FFFE3FFE3FFF80
FFFE3FFE3FFF80
00001C00000000
00003800000000
00003800000000
00007000000000
00007000000000
ENDCHAR
ENDFONT
